<?xml version="1.0" encoding="UTF-8"?>
<!DOCTYPE svg PUBLIC "-//W3C//DTD SVG 1.1//EN" "http://www.w3.org/Graphics/SVG/1.1/DTD/svg11.dtd">
<!-- Creator: CorelDRAW X6 -->
<svg xmlns="http://www.w3.org/2000/svg" xml:space="preserve" width="59.501mm" height="15.522mm" version="1.1" style="shape-rendering:geometricPrecision; text-rendering:geometricPrecision; image-rendering:optimizeQuality; fill-rule:evenodd; clip-rule:evenodd"
viewBox="0 0 3498 634"
 xmlns:xlink="http://www.w3.org/1999/xlink">
 <defs>
  <style type="text/css">
   <![CDATA[
    .fil2 {fill:none}
    .fil5 {fill:none;fill-rule:nonzero}
    .fil7 {fill:#008DD2}
    .fil4 {fill:#055F8D}
    .fil1 {fill:#597527}
    .fil0 {fill:#80AE2E}
    .fil3 {fill:#008DD2;fill-rule:nonzero}
    .fil6 {fill:#055F8D;fill-rule:nonzero}
   ]]>
  </style>
    <clipPath id="id0">
     <path d="M3188 25c-172,0 -311,137 -311,305 0,167 139,304 311,304 81,0 155,-31 210,-81l0 59 96 0 0 -237 -258 0 0 90 74 0c-22,47 -55,76 -91,76 -65,0 -118,-95 -118,-211 0,-117 53,-212 118,-212 61,0 112,84 118,191l161 0c-11,-158 -146,-284 -310,-284z"/>
    </clipPath>
    <clipPath id="id1">
     <path d="M2730 99c101,0 183,82 183,183 0,101 -82,183 -183,183 -102,0 -184,-82 -184,-183 0,-101 82,-183 184,-183zm0 116c37,0 67,30 67,67 0,37 -30,67 -67,67 -38,0 -68,-30 -68,-67 0,-37 30,-67 68,-67z"/>
    </clipPath>
    <clipPath id="id2" style="clip-rule:nonzero">
     <path d="M1843 588l327 -76 -32 -138 -178 41 -14 -58 161 -37 -30 -130 -160 37 -10 -43 174 -40 -32 -138 -323 75 117 507z"/>
    </clipPath>
     <clipPath id="id3">
      <path d="M1767 260c9,-63 -3,-127 -32,-181l-9 2 41 179z"/>
     </clipPath>
     <clipPath id="id4">
      <path d="M1843 588l327 -76 -32 -138 -178 41 -14 -58 161 -37 -30 -130 -160 37 -10 -43 174 -40 -32 -138 -323 75 117 507z"/>
     </clipPath>
    <clipPath id="id5" style="clip-rule:nonzero">
     <path d="M567 380l33 171 151 0 -118 -546 -175 302 -175 -302 -118 546 151 0 33 -171 109 186 109 -186z"/>
    </clipPath>
    <clipPath id="id6">
     <path d="M1469 2c-171,0 -311,136 -311,304 0,168 140,304 311,304 81,0 155,-30 211,-80l0 58 96 0 0 -236 -258 0 0 90 73 0c-21,46 -54,76 -90,76 -66,0 -119,-95 -119,-212 0,-117 53,-211 119,-211 61,0 112,84 117,191l161 0c-10,-158 -145,-284 -310,-284z"/>
    </clipPath>
    <clipPath id="id7" style="clip-rule:nonzero">
     <path d="M4 610l173 0 0 -451 -173 48 0 403z"/>
    </clipPath>
 </defs>
 <g id="Слой_x0020_1">
  <metadata id="CorelCorpID_0Corel-Layer"/>
  <g id="_213112008">
   <path class="fil0" d="M3188 25c-172,0 -311,137 -311,305 0,167 139,304 311,304 81,0 155,-31 210,-81l0 59 96 0 0 -237 -258 0 0 90 74 0c-22,47 -55,76 -91,76 -65,0 -118,-95 -118,-211 0,-117 53,-212 118,-212 61,0 112,84 118,191l161 0c-11,-158 -146,-284 -310,-284z"/>
   <g style="clip-path:url(#id0)">
    <g>
     <path id="1" class="fil1" d="M2742 88c101,0 182,82 180,184 -1,101 -85,183 -186,183 -101,0 -181,-82 -180,-183 2,-102 85,-184 186,-184zm-2 116c37,0 67,30 66,68 0,37 -31,67 -68,67 -37,0 -67,-30 -66,-67 1,-38 31,-68 68,-68z"/>
    </g>
   </g>
   <path class="fil2" d="M3188 25c-172,0 -311,137 -311,305 0,167 139,304 311,304 81,0 155,-31 210,-81l0 59 96 0 0 -237 -258 0 0 90 74 0c-22,47 -55,76 -91,76 -65,0 -118,-95 -118,-211 0,-117 53,-212 118,-212 61,0 112,84 118,191l161 0c-11,-158 -146,-284 -310,-284z"/>
   <path class="fil0" d="M2730 99c101,0 183,82 183,183 0,101 -82,183 -183,183 -102,0 -184,-82 -184,-183 0,-101 82,-183 184,-183zm0 116c37,0 67,30 67,67 0,37 -30,67 -67,67 -38,0 -68,-30 -68,-67 0,-37 30,-67 68,-67z"/>
   <g style="clip-path:url(#id1)">
    <g>
     <polygon id="1" class="fil1" points="2173,221 2180,30 2695,51 2433,430 2675,592 2225,574 2231,425 2411,230 "/>
    </g>
   </g>
   <path class="fil2" d="M2730 99c101,0 183,82 183,183 0,101 -82,183 -183,183 -102,0 -184,-82 -184,-183 0,-101 82,-183 184,-183zm0 116c37,0 67,30 67,67 0,37 -30,67 -67,67 -38,0 -68,-30 -68,-67 0,-37 30,-67 68,-67z"/>
   <polygon class="fil0" points="2154,259 2154,69 2669,69 2423,458 2671,458 2671,610 2221,610 2221,462 2392,259 "/>
   <polygon class="fil3" points="1843,588 2170,512 2138,374 1960,415 1946,357 2107,320 2077,190 1917,227 1907,184 2081,144 2049,6 1726,81 "/>
   <g style="clip-path:url(#id2)">
    <g>
     <path id="1" class="fil4" d="M1545 -75c-165,-48 -336,43 -384,205 -47,161 49,331 213,379 78,22 158,14 225,-18l-16 56 92 27 66 -227 -247 -73 -25 87 70 20c-34,39 -73,58 -108,48 -63,-19 -87,-124 -55,-237 33,-112 111,-188 173,-170 59,18 84,113 60,217l154 45c34,-155 -60,-313 -218,-359z"/>
    </g>
    <g style="clip-path:url(#id3)">
    </g>
    <g style="clip-path:url(#id4)">
     <path id="2" class="fil2" d="M1545 -75c-165,-48 -336,43 -384,205 -47,161 49,331 213,379 78,22 158,14 225,-18l-16 56 92 27 66 -227 -247 -73 -25 87 70 20c-34,39 -73,58 -108,48 -63,-19 -87,-124 -55,-237 33,-112 111,-188 173,-170 59,18 84,113 60,217l154 45c34,-155 -60,-313 -218,-359z"/>
    </g>
   </g>
   <polygon class="fil5" points="1843,588 2170,512 2138,374 1960,415 1946,357 2107,320 2077,190 1917,227 1907,184 2081,144 2049,6 1726,81 "/>
   <polygon class="fil3" points="567,380 600,551 751,551 633,5 458,307 283,5 165,551 316,551 349,380 458,566 "/>
   <g style="clip-path:url(#id5)">
    <g>
     <path id="1" class="fil6" d="M981 398c-26,3 -53,-16 -60,-42 -7,-26 7,-50 33,-53 25,-3 52,15 60,41 7,26 -8,50 -33,54zm299 93l-452 -564 -110 638 209 -27 9 -95 -16 2 -6 -20 -22 3c-12,2 -24,-7 -27,-18l-24 -86c-4,-11 3,-22 15,-24l4 0c1,0 2,-1 2,-2l0 -1c1,-3 2,-4 4,-4l5 -1c2,0 5,1 6,3l1 1c1,1 2,1 3,1l27 -4c3,0 4,-2 5,-4l2 -14c1,-7 6,-12 13,-13l3 0 -1 -3c-1,0 -3,-1 -3,-3l-2 -6 -9 1c-8,1 -17,-5 -19,-13l-18 -61c-2,-8 3,-16 11,-17l48 -6c8,-1 17,4 19,13l17 61c3,8 -2,16 -10,17l-9 1 1 6c1,2 0,3 -2,4l1 3 4 -1c7,-1 14,3 19,9l9 12c2,2 4,3 7,3l14 -2c11,-1 23,7 27,19l24 85c3,12 -3,23 -15,24l-22 3 5 20 -16 2 60 85 209 -27zm-326 43l91 -12 -61 -85 -21 3 -9 94zm-48 -202c-4,0 -8,-3 -9,-7 -2,-4 1,-8 5,-9 4,0 8,3 10,7 1,4 -2,8 -6,9z"/>
     <rect class="fil4" transform="matrix(0.40107 -0.0564439 0.0564433 0.401074 -375.346 177.025)" width="1240" height="1300"/>
    </g>
   </g>
   <polygon class="fil5" points="567,380 600,551 751,551 633,5 458,307 283,5 165,551 316,551 349,380 458,566 "/>
   <path class="fil7" d="M1469 2c-171,0 -311,136 -311,304 0,168 140,304 311,304 81,0 155,-30 211,-80l0 58 96 0 0 -236 -258 0 0 90 73 0c-21,46 -54,76 -90,76 -66,0 -119,-95 -119,-212 0,-117 53,-211 119,-211 61,0 112,84 117,191l161 0c-10,-158 -145,-284 -310,-284z"/>
   <g style="clip-path:url(#id6)">
    <g>
     <polygon id="1" class="fil4" points="643,86 1112,-2 1226,602 756,690 "/>
    </g>
   </g>
   <path class="fil2" d="M1469 2c-171,0 -311,136 -311,304 0,168 140,304 311,304 81,0 155,-30 211,-80l0 58 96 0 0 -236 -258 0 0 90 73 0c-21,46 -54,76 -90,76 -66,0 -119,-95 -119,-212 0,-117 53,-211 119,-211 61,0 112,84 117,191l161 0c-10,-158 -145,-284 -310,-284z"/>
   <polygon class="fil3" points="4,610 177,610 177,159 4,207 "/>
   <g style="clip-path:url(#id7)">
    <g>
     <polygon id="1" class="fil6" points="22,123 187,178 221,76 56,21 "/>
    </g>
   </g>
   <polygon class="fil5" points="4,610 177,610 177,159 4,207 "/>
   <polygon class="fil3" points="172,162 0,138 15,32 187,56 "/>
   <path class="fil3" d="M1276 606l-289 -606 -289 606 212 0 20 -42 -10 0 0 -41 -39 0c-12,0 -22,-10 -22,-22l0 -118c0,-12 10,-22 22,-22l4 0c1,-5 6,-9 11,-9l21 0c6,0 10,4 12,9l14 0c0,-23 -3,-46 -5,-69 0,0 0,0 0,0l-15 0c-3,0 -6,-3 -6,-6l0 -65c0,-3 3,-6 6,-6l128 0c3,0 5,3 5,6l0 65c0,3 -2,6 -5,6l-15 0c0,0 0,0 0,0 -2,23 -6,46 -6,69l63 0c12,0 22,10 22,22l0 118c0,12 -10,22 -22,22l-40 0 0 41 -9 0 20 42 212 0zm-313 0l48 0 -20 -42 -9 0 -19 42zm24 -99c-37,0 -67,-30 -67,-67 0,-37 30,-67 67,-67 37,0 67,30 67,67 0,37 -30,67 -67,67z"/>
  </g>
 </g>
</svg>
